<svg width="36" height="36" viewBox="0 0 36 36" fill="none" xmlns="http://www.w3.org/2000/svg">
<path fill-rule="evenodd" clip-rule="evenodd" d="M0 4C0 1.79086 1.79086 0 4 0H12C14.2091 0 16 1.79086 16 4V12C16 14.2091 14.2091 16 12 16H4C1.79086 16 0 14.2091 0 12V4Z" fill="#28231F"/>
<path fill-rule="evenodd" clip-rule="evenodd" d="M20 4C20 1.79086 21.7909 0 24 0H32C34.2091 0 36 1.79086 36 4V12C36 14.2091 34.2091 16 32 16H24C21.7909 16 20 14.2091 20 12V4Z" fill="#28231F"/>
<path fill-rule="evenodd" clip-rule="evenodd" d="M0 24C0 21.7909 1.79086 20 4 20H12C14.2091 20 16 21.7909 16 24V32C16 34.2091 14.2091 36 12 36H4C1.79086 36 0 34.2091 0 32V24Z" fill="#28231F"/>
<path fill-rule="evenodd" clip-rule="evenodd" d="M20 24C20 21.7909 21.7909 20 24 20H32C34.2091 20 36 21.7909 36 24V32C36 34.2091 34.2091 36 32 36H24C21.7909 36 20 34.2091 20 32V24Z" fill="#28231F"/>
</svg>
