<svg width="32" height="32" viewBox="0 0 32 32" fill="none" xmlns="http://www.w3.org/2000/svg">
<path fill-rule="evenodd" clip-rule="evenodd" d="M17 19.8401V31.3334H15V19.8401H17Z" fill="#738A6D"/>
<path fill-rule="evenodd" clip-rule="evenodd" d="M17 0.666748V12.1734H15V0.666748H17Z" fill="#738A6D"/>
<path fill-rule="evenodd" clip-rule="evenodd" d="M15.9999 6.91923L12.2404 3.15967L10.8262 4.57388L15.9999 9.74765L21.1737 4.57388L19.7595 3.15967L15.9999 6.91923Z" fill="#738A6D"/>
<path fill-rule="evenodd" clip-rule="evenodd" d="M17 19.8401V31.3334H15V19.8401H17Z" fill="#738A6D"/>
<path fill-rule="evenodd" clip-rule="evenodd" d="M17 0.666748V12.1734H15V0.666748H17Z" fill="#738A6D"/>
<path fill-rule="evenodd" clip-rule="evenodd" d="M15.9999 22.2524L21.1737 27.4262L19.7595 28.8404L15.9999 25.0809L12.2404 28.8404L10.8262 27.4262L15.9999 22.2524Z" fill="#738A6D"/>
<path fill-rule="evenodd" clip-rule="evenodd" d="M29.7793 22.8004L28.7806 24.5332L18.8193 18.7858L19.8206 17.0544L29.7793 22.8004Z" fill="#738A6D"/>
<path fill-rule="evenodd" clip-rule="evenodd" d="M3.22022 7.46729L13.1802 13.214L12.1807 14.9463L2.2207 9.19962L3.22022 7.46729Z" fill="#738A6D"/>
<path fill-rule="evenodd" clip-rule="evenodd" d="M8.13501 11.4648L6.75424 6.31212L8.68608 5.79443L10.5853 12.8818L3.51089 14.7662L2.99609 12.8336L8.13501 11.4648Z" fill="#738A6D"/>
<path fill-rule="evenodd" clip-rule="evenodd" d="M29.7793 22.8004L28.7806 24.5332L18.8193 18.7858L19.8206 17.0544L29.7793 22.8004Z" fill="#738A6D"/>
<path fill-rule="evenodd" clip-rule="evenodd" d="M3.22022 7.46729L13.1802 13.214L12.1807 14.9463L2.2207 9.19962L3.22022 7.46729Z" fill="#738A6D"/>
<path fill-rule="evenodd" clip-rule="evenodd" d="M23.8653 20.5463L29.0062 19.1657L28.4875 17.2341L21.415 19.1335L23.3144 26.2059L25.246 25.6872L23.8653 20.5463Z" fill="#738A6D"/>
<path fill-rule="evenodd" clip-rule="evenodd" d="M2.2207 22.8004L12.1807 17.0537L13.1802 18.786L3.22022 24.5327L2.2207 22.8004Z" fill="#738A6D"/>
<path fill-rule="evenodd" clip-rule="evenodd" d="M29.7809 9.1991L23.1383 13.0406L19.8183 14.9473L18.8223 13.2129L22.1397 11.3078L22.1423 11.3063L28.7797 7.46777L29.7809 9.1991Z" fill="#738A6D"/>
<path fill-rule="evenodd" clip-rule="evenodd" d="M23.3143 5.79443L25.2461 6.31212L23.8653 11.4648L29.0043 12.8336L28.4895 14.7662L21.415 12.8818L23.3143 5.79443Z" fill="#738A6D"/>
<path fill-rule="evenodd" clip-rule="evenodd" d="M2.2207 22.8004L12.1807 17.0537L13.1802 18.786L3.22022 24.5327L2.2207 22.8004Z" fill="#738A6D"/>
<path fill-rule="evenodd" clip-rule="evenodd" d="M29.7809 9.1991L23.1383 13.0406L19.8183 14.9473L18.8223 13.2129L22.1397 11.3078L22.1423 11.3063L28.7797 7.46777L29.7809 9.1991Z" fill="#738A6D"/>
<path fill-rule="evenodd" clip-rule="evenodd" d="M3.51288 17.2341L10.5853 19.1335L8.68595 26.2059L6.7544 25.6872L8.13503 20.5463L2.99414 19.1657L3.51288 17.2341Z" fill="#738A6D"/>
<path fill-rule="evenodd" clip-rule="evenodd" d="M16.8985 13.3094C16.2424 13.0882 15.5282 13.1132 14.8891 13.3797C14.25 13.6461 13.7296 14.1359 13.4249 14.7577C13.1202 15.3794 13.052 16.0908 13.233 16.7592C13.414 17.4275 13.8319 18.0072 14.4087 18.3902C14.9856 18.7733 15.682 18.9335 16.3682 18.841C17.0544 18.7485 17.6836 18.4097 18.1385 17.8876C18.5933 17.3656 18.8427 16.6961 18.8404 16.0037C18.8382 15.5042 18.7054 15.0139 18.4552 14.5815C18.1078 13.9826 17.5546 13.5305 16.8985 13.3094ZM14.1194 11.5337C15.2065 11.0804 16.4213 11.038 17.5373 11.4142C18.6534 11.7903 19.5946 12.5595 20.1855 13.5784L20.1859 13.5792C20.6111 14.3138 20.8367 15.1469 20.8404 15.9957L20.8404 15.9966C20.8445 17.1744 20.4201 18.3134 19.6464 19.2014C18.8727 20.0894 17.8025 20.6658 16.6353 20.8231C15.4681 20.9804 14.2835 20.7079 13.3024 20.0564C12.3212 19.4049 11.6104 18.4188 11.3026 17.282C10.9947 16.1452 11.1107 14.9352 11.6289 13.8776C12.1472 12.82 13.0324 11.9869 14.1194 11.5337Z" fill="#738A6D"/>
</svg>
