<svg width="40" height="40" viewBox="0 0 40 40" fill="none" xmlns="http://www.w3.org/2000/svg">
<path fill-rule="evenodd" clip-rule="evenodd" d="M19.9997 6.83325H0.833008V4.33325H19.9997V6.83325Z" fill="#28231F"/>
<path fill-rule="evenodd" clip-rule="evenodd" d="M9.16699 5.58338V0.800049H11.667V5.58338H9.16699Z" fill="#28231F"/>
<path fill-rule="evenodd" clip-rule="evenodd" d="M10.5394 14.3769C12.7306 11.3265 13.9504 8.1624 13.9504 5.58325H16.4504C16.4504 8.87077 14.9369 12.54 12.5698 15.8354C10.1881 19.1511 6.85528 22.2129 3.02472 24.2681L1.84277 22.0651C5.31221 20.2037 8.36271 17.4071 10.5394 14.3769Z" fill="#28231F"/>
<path fill-rule="evenodd" clip-rule="evenodd" d="M17.7293 24.2613C12.9495 21.6255 9.02438 17.6762 6.41797 12.8803L8.61454 11.6865C10.993 16.0629 14.5748 19.6668 18.9365 22.0721L17.7293 24.2613Z" fill="#28231F"/>
<path fill-rule="evenodd" clip-rule="evenodd" d="M27.1072 18.7166H30.4587L37.1411 37.1063L34.7915 37.9601L28.783 21.425L22.7745 37.9601L20.4248 37.1063L27.1072 18.7166Z" fill="#28231F"/>
<path fill-rule="evenodd" clip-rule="evenodd" d="M25.1162 29.8999H34.0495V32.3999H25.1162V29.8999Z" fill="#28231F"/>
<path fill-rule="evenodd" clip-rule="evenodd" d="M24.8004 38.7834H18.4004V36.2834H24.8004V38.7834Z" fill="#28231F"/>
<path fill-rule="evenodd" clip-rule="evenodd" d="M39.1665 38.7834H32.7832V36.2834H39.1665V38.7834Z" fill="#28231F"/>
</svg>
