<svg width="32" height="32" viewBox="0 0 32 32" fill="none" xmlns="http://www.w3.org/2000/svg">
<path fill-rule="evenodd" clip-rule="evenodd" d="M1 16C1 7.71573 7.71573 1 16 1C24.2843 1 31 7.71573 31 16C31 24.2843 24.2843 31 16 31C7.71573 31 1 24.2843 1 16ZM16 3C8.8203 3 3 8.8203 3 16C3 23.1797 8.8203 29 16 29C23.1797 29 29 23.1797 29 16C29 8.8203 23.1797 3 16 3Z" fill="#738A6D"/>
<path fill-rule="evenodd" clip-rule="evenodd" d="M10.2002 17.5466H13.1202C14.2306 17.5466 15.2955 17.9877 16.0806 18.7729C16.8658 19.558 17.3069 20.6229 17.3069 21.7333V24.64H14.3869C13.2765 24.64 12.2116 24.1989 11.4264 23.4137C10.6413 22.6286 10.2002 21.5637 10.2002 20.4533V17.5466ZM12.2002 19.5466V20.4533C12.2002 21.0332 12.4306 21.5894 12.8407 21.9995C13.2507 22.4096 13.8069 22.64 14.3869 22.64H15.3069V21.7333C15.3069 21.1534 15.0765 20.5972 14.6664 20.1871C14.2563 19.777 13.7001 19.5466 13.1202 19.5466H12.2002Z" fill="#738A6D"/>
<path fill-rule="evenodd" clip-rule="evenodd" d="M18.2134 24.6399H15.2401V21.7332C15.2401 20.6229 15.6811 19.558 16.4663 18.7728C17.2515 17.9877 18.3163 17.5466 19.4267 17.5466H22.3867L22.3867 20.4532C22.3867 20.4532 22.3867 20.4532 22.3867 20.4532C22.3867 21.5606 21.948 22.6228 21.1667 23.4075C20.3853 24.1921 19.3249 24.6353 18.2176 24.6399L18.2134 24.6399ZM18.2111 22.6399C18.7888 22.637 19.3418 22.4056 19.7495 21.9962C20.1576 21.5864 20.3867 21.0316 20.3867 20.4532V19.5466H19.4267C18.8468 19.5466 18.2906 19.7769 17.8805 20.187C17.4704 20.5971 17.2401 21.1533 17.2401 21.7332V22.6399H18.2111Z" fill="#738A6D"/>
<path fill-rule="evenodd" clip-rule="evenodd" d="M10.2002 12.4531H13.1202C13.67 12.4531 14.2144 12.5614 14.7224 12.7718C15.2303 12.9822 15.6918 13.2906 16.0806 13.6794C16.4694 14.0681 16.7778 14.5297 16.9882 15.0376C17.1986 15.5456 17.3069 16.09 17.3069 16.6398V19.5465H14.3869C13.8371 19.5465 13.2926 19.4382 12.7847 19.2278C12.2767 19.0174 11.8152 18.709 11.4264 18.3202C10.6413 17.5351 10.2002 16.4702 10.2002 15.3598V12.4531ZM12.2002 14.4531V15.3598C12.2002 15.9397 12.4306 16.4959 12.8407 16.906C13.0437 17.109 13.2848 17.2701 13.5501 17.38C13.8154 17.4899 14.0997 17.5465 14.3869 17.5465H15.3069V16.6398C15.3069 16.3526 15.2503 16.0683 15.1404 15.803C15.0305 15.5377 14.8695 15.2966 14.6664 15.0936C14.4634 14.8905 14.2223 14.7295 13.957 14.6196C13.6917 14.5097 13.4074 14.4531 13.1202 14.4531H12.2002Z" fill="#738A6D"/>
<path fill-rule="evenodd" clip-rule="evenodd" d="M18.2001 17.5466C18.4872 17.5466 18.7716 17.4901 19.0369 17.3802C19.3022 17.2703 19.5432 17.1092 19.7463 16.9062C19.9493 16.7031 20.1104 16.4621 20.2203 16.1968C20.3302 15.9315 20.3867 15.6471 20.3867 15.36V14.4533H19.4267C19.1396 14.4533 18.8552 14.5099 18.5899 14.6197C18.3246 14.7296 18.0836 14.8907 17.8805 15.0938C17.6775 15.2968 17.5164 15.5379 17.4065 15.8032C17.2966 16.0685 17.2401 16.3528 17.2401 16.64V17.5466H18.2001ZM18.2134 19.5466C18.7587 19.5449 19.2984 19.4366 19.8022 19.2279C20.3102 19.0175 20.7717 18.7092 21.1605 18.3204C21.5492 17.9316 21.8576 17.4701 22.068 16.9621C22.2784 16.4542 22.3867 15.9098 22.3867 15.36V12.4533H19.4267C18.8769 12.4533 18.3325 12.5616 17.8246 12.772C17.3166 12.9824 16.8551 13.2908 16.4663 13.6795C16.0775 14.0683 15.7691 14.5298 15.5587 15.0378C15.3483 15.5457 15.2401 16.0902 15.2401 16.64V19.5466L18.2134 19.5466Z" fill="#738A6D"/>
<path fill-rule="evenodd" clip-rule="evenodd" d="M18.3625 13.8692L16.3449 15.8868L14.2895 13.8315C13.5044 13.0463 13.0633 11.9814 13.0633 10.8711C13.0633 9.7607 13.5044 8.6958 14.2895 7.91065L16.2977 5.90247L18.3531 7.95779C18.3531 7.95779 18.353 7.95778 18.3531 7.95779C19.1361 8.74079 19.577 9.80212 19.5793 10.9095C19.5816 12.0168 19.1452 13.08 18.3654 13.8662L18.3625 13.8692ZM16.9467 12.4566C17.3531 12.0461 17.5805 11.4914 17.5793 10.9136C17.5781 10.3353 17.3478 9.78097 16.9388 9.37201L16.2977 8.7309L15.7038 9.32487C15.2937 9.73494 15.0633 10.2911 15.0633 10.8711C15.0633 11.451 15.2937 12.0072 15.7038 12.4173L16.3449 13.0584L16.9467 12.4566Z" fill="#738A6D"/>
<path fill-rule="evenodd" clip-rule="evenodd" d="M17.3066 23.6399V27.4532H15.3066V23.6399H17.3066Z" fill="#738A6D"/>
<path fill-rule="evenodd" clip-rule="evenodd" d="M25.6928 27.107L20.0928 21.507L21.507 20.0928L27.107 25.6928L25.6928 27.107Z" fill="#738A6D"/>
<path fill-rule="evenodd" clip-rule="evenodd" d="M12.8934 14.3071L5.69336 7.10708L7.10757 5.69287L14.3076 12.8929L12.8934 14.3071Z" fill="#738A6D"/>
</svg>
