<svg width="40" height="40" viewBox="0 0 40 40" fill="none" xmlns="http://www.w3.org/2000/svg">
<path fill-rule="evenodd" clip-rule="evenodd" d="M7.25004 1V11.5519L7.25003 11.5559C7.24689 12.5331 7.49632 13.4872 7.96424 14.3118C8.4307 15.1338 9.0928 15.79 9.86831 16.2184C10.5251 16.5696 11.2437 16.75 11.9686 16.75C12.6955 16.75 13.4163 16.5686 14.0747 16.2152L14.08 16.2123C14.8674 15.7947 15.5423 15.1425 16.0188 14.3186C16.4956 13.4942 16.7513 12.5361 16.75 11.5535L16.75 1H19.25V11.5519C19.2516 12.966 18.8843 14.3576 18.1829 15.5703C17.4815 16.783 16.4704 17.7736 15.2544 18.4194L15.2515 18.4209L15.2569 18.418L15.2544 18.4194C14.2388 18.9639 13.1135 19.25 11.9686 19.25C10.8227 19.25 9.69643 18.9634 8.68017 18.418L8.66844 18.4117C7.46991 17.7519 6.47695 16.7563 5.78993 15.5456C5.10353 14.336 4.74589 12.9535 4.75004 11.5499V11.5519L4.75004 11.5478L4.75004 11.5499V1H7.25004Z" fill="#28231F"/>
<path fill-rule="evenodd" clip-rule="evenodd" d="M10.7666 39.1666V0.833252H13.2666V39.1666H10.7666Z" fill="#28231F"/>
<path fill-rule="evenodd" clip-rule="evenodd" d="M23.5332 1.25L24.7832 1.25C26.2053 1.25 27.6133 1.5304 28.9269 2.07517C30.2405 2.61993 31.4337 3.41837 32.4384 4.42479C33.4431 5.43121 34.2394 6.62585 34.7819 7.94036C35.3242 9.25453 35.6022 10.6627 35.5999 12.0844L35.5999 12.0855L35.5999 12.0833V12.0844V22.4398L26.0332 27.2148V24.4207L33.0999 20.8935L33.0999 12.0812C33.1018 10.9878 32.8881 9.90475 32.471 8.89405C32.0539 7.88336 31.4416 6.96482 30.6691 6.19102C29.8966 5.41721 28.9792 4.80331 27.9692 4.38445C27.3466 4.12626 26.6965 3.94531 26.0332 3.84447V24.4207V27.2148V39.1667H23.5332V1.25Z" fill="#28231F"/>
</svg>
