<svg width="40" height="40" viewBox="0 0 40 40" fill="none" xmlns="http://www.w3.org/2000/svg">
<path fill-rule="evenodd" clip-rule="evenodd" d="M32.3671 1.25H7.63379V37.9869L20.0005 30.9229L32.3671 37.9869V1.25Z" fill="#8F0F0C"/>
<path d="M19.9997 13.1167L20.983 15.1L23.1663 15.4167L21.583 16.9667L21.9663 19.15L19.9997 18.1167L18.033 19.15L18.4163 16.9667L16.833 15.4167L19.0163 15.1L19.9997 13.1167Z" fill="#FDECD8"/>
<path fill-rule="evenodd" clip-rule="evenodd" d="M20 10.3027L21.8119 13.9572L25.8468 14.5424L22.9284 17.3993L23.6379 21.4403L20 19.5288L16.3622 21.4403L17.0716 17.3993L14.1533 14.5424L18.1882 13.9572L20 10.3027ZM20 15.9308L19.8453 16.243L19.5134 16.2912L19.7618 16.5343L19.7046 16.86L20 16.7047L20.2955 16.86L20.2383 16.5343L20.4867 16.2912L20.1548 16.243L20 15.9308Z" fill="#FDECD8"/>
</svg>
