<svg width="32" height="32" viewBox="0 0 32 32" fill="none" xmlns="http://www.w3.org/2000/svg">
<path fill-rule="evenodd" clip-rule="evenodd" d="M1 16C1 7.71573 7.71573 1 16 1C24.2843 1 31 7.71573 31 16C31 24.2843 24.2843 31 16 31C7.71573 31 1 24.2843 1 16ZM16 3C8.8203 3 3 8.8203 3 16C3 23.1797 8.8203 29 16 29C23.1797 29 29 23.1797 29 16C29 8.8203 23.1797 3 16 3Z" fill="#738A6D"/>
<path fill-rule="evenodd" clip-rule="evenodd" d="M25.6926 27.107L20.8926 22.307L22.3068 20.8928L27.1068 25.6928L25.6926 27.107Z" fill="#738A6D"/>
<path fill-rule="evenodd" clip-rule="evenodd" d="M10.4934 11.9071L5.69336 7.10708L7.10757 5.69287L11.9076 10.4929L10.4934 11.9071Z" fill="#738A6D"/>
<path fill-rule="evenodd" clip-rule="evenodd" d="M16.5996 14.6001H9.59961V12.6001H18.5996V24.0001H16.5996V14.6001Z" fill="#738A6D"/>
<path fill-rule="evenodd" clip-rule="evenodd" d="M11 6.19995H21V11.4H11V6.19995ZM13 8.19995V9.39995H19V8.19995H13Z" fill="#738A6D"/>
<path fill-rule="evenodd" clip-rule="evenodd" d="M19.5996 8.51318L16.5996 13.3132V25H22.5996V13.3132L19.5996 8.51318ZM20.5996 13.8868V23H18.5996V13.8868L19.5996 12.2868L20.5996 13.8868Z" fill="#738A6D"/>
<path fill-rule="evenodd" clip-rule="evenodd" d="M12.1539 11.3999H19.5996V9.3999H11.0454L8.59961 13.3131V24.9999H17.5996V22.9999H10.5996V13.8867L12.1539 11.3999Z" fill="#738A6D"/>
</svg>
