<svg width="32" height="32" viewBox="0 0 32 32" fill="none" xmlns="http://www.w3.org/2000/svg">
<path fill-rule="evenodd" clip-rule="evenodd" d="M6.09375 15H25.9071V22.0933H6.09375V15ZM8.09375 17V20.0933H23.9071V17H8.09375Z" fill="#738A6D"/>
<path fill-rule="evenodd" clip-rule="evenodd" d="M7.20605 20.0933H24.794L23.2266 30.9999H8.77348L7.20605 20.0933ZM9.51403 22.0933L10.5066 28.9999H21.4935L22.4861 22.0933H9.51403Z" fill="#738A6D"/>
<path fill-rule="evenodd" clip-rule="evenodd" d="M20.4263 10.2655C20.4299 11.8932 20.1172 13.5006 19.5112 15H22.3001C23.4004 14.037 24.2923 12.8573 24.9191 11.5334C25.4466 10.4192 25.7742 9.27689 25.8943 8.08536C23.9157 8.26803 22.0218 8.99582 20.4263 10.1928V10.2655ZM18.7922 8.93345C21.0917 7.0476 23.9777 6.02413 26.9516 6.03998L27.946 6.04527L27.9463 7.03968C27.9468 8.92454 27.5272 10.6986 26.7267 12.3892C25.9232 14.0864 24.7527 15.584 23.2999 16.7737L23.0235 17H16.2021L17.05 15.5064C17.9562 13.9099 18.4306 12.1047 18.4263 10.269L18.4263 10.2667V9.2335L18.7922 8.93345Z" fill="#738A6D"/>
<path fill-rule="evenodd" clip-rule="evenodd" d="M15.9999 0.585693L16.7071 1.29309C18.9332 3.5196 20.2533 6.49318 20.4117 9.63746C20.4266 9.87913 20.4266 10.0768 20.4266 10.2589V10.2655C20.4315 12.4486 19.8673 14.5952 18.7896 16.4938L18.5022 17.0001H13.4948L13.2081 16.49C12.0396 14.4101 11.4781 12.044 11.5877 9.66087L11.5878 9.65813C11.7413 6.50652 13.062 3.52476 15.2927 1.29315L15.9999 0.585693ZM16 3.48781C14.5499 5.25634 13.698 7.45138 13.5855 9.7541C13.5022 11.5705 13.8813 13.375 14.6829 15.0001H17.3198C18.0503 13.533 18.4304 11.9133 18.4266 10.2691L18.4266 10.2668C18.4266 10.0793 18.4264 9.93442 18.4152 9.75583L18.4148 9.74957L18.4145 9.74331C18.2998 7.44435 17.448 5.25343 16 3.48781Z" fill="#738A6D"/>
<path fill-rule="evenodd" clip-rule="evenodd" d="M6.10638 8.02386C6.22777 9.24034 6.55742 10.4296 7.08341 11.539C7.71009 12.8606 8.60102 14.0384 9.69986 15.0001H12.494C11.8776 13.4669 11.5638 11.8249 11.5742 10.1654C9.98261 8.95621 8.0884 8.21652 6.10638 8.02386ZM5.05261 5.97339C8.03864 5.97044 10.9311 7.01482 13.2265 8.92469L13.6092 9.24309L13.5858 9.74037C13.4912 11.7537 13.9646 13.7531 14.952 15.5101L15.7893 17.0001H8.9764L8.70003 16.7738C7.24907 15.5856 6.07973 14.0904 5.27626 12.3958C4.4728 10.7013 4.05521 8.84963 4.0536 6.97426L4.05273 5.97438L5.05261 5.97339Z" fill="#738A6D"/>
</svg>
