<svg width="24" height="25" viewBox="0 0 24 25" fill="none" xmlns="http://www.w3.org/2000/svg">
<path fill-rule="evenodd" clip-rule="evenodd" d="M5.31992 2.95492C3.73763 2.95492 2.45492 4.23763 2.45492 5.81992V19.1799C2.45492 20.7622 3.73763 22.0449 5.31992 22.0449H18.6799C20.2622 22.0449 21.5449 20.7622 21.5449 19.1799V5.81992C21.5449 4.23763 20.2622 2.95492 18.6799 2.95492H5.31992ZM0.544922 5.81992C0.544922 3.18276 2.68276 1.04492 5.31992 1.04492H18.6799C21.3171 1.04492 23.4549 3.18276 23.4549 5.81992V19.1799C23.4549 21.8171 21.3171 23.9549 18.6799 23.9549H5.31992C2.68276 23.9549 0.544922 21.8171 0.544922 19.1799V5.81992Z" fill="#8F0F0C"/>
<path fill-rule="evenodd" clip-rule="evenodd" d="M12.0004 8.6849C9.89342 8.6849 8.18539 10.3929 8.18539 12.4999C8.18539 14.6069 9.89342 16.3149 12.0004 16.3149C14.1074 16.3149 15.8154 14.6069 15.8154 12.4999C15.8154 10.3929 14.1074 8.6849 12.0004 8.6849ZM6.27539 12.4999C6.27539 9.33807 8.83856 6.7749 12.0004 6.7749C15.1622 6.7749 17.7254 9.33807 17.7254 12.4999C17.7254 15.6617 15.1622 18.2249 12.0004 18.2249C8.83856 18.2249 6.27539 15.6617 6.27539 12.4999Z" fill="#8F0F0C"/>
<path d="M18.1995 7.73012C18.9893 7.73012 19.6295 7.08988 19.6295 6.30012C19.6295 5.51035 18.9893 4.87012 18.1995 4.87012C17.4098 4.87012 16.7695 5.51035 16.7695 6.30012C16.7695 7.08988 17.4098 7.73012 18.1995 7.73012Z" fill="#8F0F0C"/>
</svg>
