<svg width="24" height="25" viewBox="0 0 24 25" fill="none" xmlns="http://www.w3.org/2000/svg">
<g clip-path="url(#clip0_52_261)">
<path fill-rule="evenodd" clip-rule="evenodd" d="M5.52881 0.654297L12.3143 7.43978L9.61021 10.1439C9.39409 10.3644 9.27299 10.6609 9.27299 10.9698C9.27299 11.2786 9.39409 11.5752 9.61021 11.7957L12.7042 14.8897C12.7046 14.8901 12.7051 14.8905 12.7055 14.891C12.9263 15.1093 13.2244 15.2318 13.5351 15.2318C13.8457 15.2318 14.1438 15.1093 14.3647 14.891C14.3651 14.8905 14.3655 14.8901 14.366 14.8897L17.0701 12.1856L23.8568 18.9723L20.3486 22.4555C20.3479 22.4561 20.3473 22.4568 20.3466 22.4574C18.6966 24.112 16.1405 24.2352 13.637 23.4964C11.0915 22.7452 8.335 21.0449 5.92918 18.6131C3.52842 16.1863 1.81893 13.4221 1.04911 10.8754C0.292835 8.37345 0.381151 5.80939 2.04295 4.1527L5.52881 0.654297ZM5.53136 3.48527L3.45581 5.56828C2.56897 6.45164 2.29255 8.07683 2.96356 10.2967C3.62123 12.4724 5.13175 14.9632 7.35099 17.2065C9.56517 19.4446 12.0387 20.9394 14.2031 21.5782C16.4087 22.2291 18.0415 21.9376 18.9316 21.0441L18.9355 21.0401L21.0233 18.9672L17.0701 15.014L15.7772 16.3069L15.7742 16.3099C15.1786 16.9004 14.3738 17.2318 13.5351 17.2318C12.6963 17.2318 11.8915 16.9004 11.296 16.3099L11.293 16.3069L8.18772 13.2016C7.60155 12.6067 7.27298 11.805 7.27298 10.9698C7.27298 10.1346 7.60157 9.3329 8.18774 8.73795L8.19296 8.73265L9.48587 7.43978L5.53136 3.48527Z" fill="#8F0F0C"/>
</g>
<defs>
<clipPath id="clip0_52_261">
<rect width="24" height="24" fill="white" transform="translate(0 0.5)"/>
</clipPath>
</defs>
</svg>
