<svg width="24" height="25" viewBox="0 0 24 25" fill="none" xmlns="http://www.w3.org/2000/svg">
<path fill-rule="evenodd" clip-rule="evenodd" d="M12.4994 1.04981C14.1642 1.04782 15.8075 1.42544 17.3044 2.15398C18.8015 2.88259 20.1127 3.94301 21.1383 5.25458C22.164 6.56615 22.877 8.09433 23.2232 9.7229C23.5694 11.3515 23.5397 13.0376 23.1363 14.6529C22.7329 16.2683 21.9664 17.7704 20.8952 19.045C19.8239 20.3195 18.4762 21.3331 16.9543 22.0085C15.4325 22.6838 13.7767 23.0033 12.1128 22.9425C10.5686 22.8861 9.05527 22.5036 7.67169 21.8217L1.24805 23.2518L2.67838 16.8275C1.89951 15.2418 1.51505 13.4895 1.5603 11.7199C1.6086 9.83086 2.14495 7.98646 3.11717 6.36608C4.0894 4.7457 5.46441 3.4045 7.10849 2.47292C8.75241 1.54142 10.6099 1.05117 12.4994 1.04981ZM16.473 3.86239C15.2356 3.2602 13.8773 2.94809 12.5012 2.94981C10.9395 2.95085 9.40398 3.35605 8.04517 4.12599C6.68637 4.89593 5.54994 6.00441 4.74641 7.34362C3.94288 8.68284 3.4996 10.2072 3.45968 11.7685C3.41976 13.3297 3.78455 14.8748 4.51859 16.2533L4.68369 16.5634L3.75207 20.7478L7.93724 19.816L8.24774 19.9819C9.46144 20.6304 10.807 20.9935 12.1822 21.0438C13.5573 21.094 14.9258 20.83 16.1836 20.2718C17.4414 19.7136 18.5553 18.8759 19.4406 17.8225C20.326 16.7691 20.9595 15.5276 21.2929 14.1926C21.6263 12.8575 21.6509 11.464 21.3647 10.118C21.0786 8.77199 20.4893 7.50897 19.6416 6.42498C18.794 5.34099 17.7103 4.46458 16.473 3.86239Z" fill="#8F0F0C"/>
<path d="M14.8798 13.4302L17.7398 16.2902C17.7398 16.2902 13.9298 20.1002 9.16979 15.2902C4.40979 10.4802 8.16979 6.72021 8.16979 6.72021L11.0298 9.58021L10.9798 9.68022C10.7151 10.2054 10.6238 10.8011 10.719 11.3815C10.8143 11.9619 11.0911 12.4971 11.5098 12.9102C11.9229 13.3289 12.4581 13.6057 13.0385 13.701C13.6189 13.7962 14.2146 13.7049 14.7398 13.4402L14.8798 13.4302Z" fill="#8F0F0C"/>
</svg>
