<svg width="40" height="40" viewBox="0 0 40 40" fill="none" xmlns="http://www.w3.org/2000/svg">
<g clip-path="url(#clip0_66_169)">
<path fill-rule="evenodd" clip-rule="evenodd" d="M0 9.86667C0 4.41746 4.41746 0 9.86667 0H30.1333C35.5825 0 40 4.41746 40 9.86667V30.1333C40 35.5825 35.5825 40 30.1333 40H9.86667C4.41746 40 0 35.5825 0 30.1333V9.86667Z" fill="#8F0F0C"/>
<path fill-rule="evenodd" clip-rule="evenodd" d="M20 9L23.3959 16.2512L31 17.4123L25.5116 23.053L26.804 31L20 27.247L13.196 31L14.4884 23.053L9 17.4123L16.6041 16.2512L20 9ZM20 15.1561L18.3248 18.7331L14.5451 19.3103L17.2669 22.1076L16.6275 26.039L20 24.1788L23.3725 26.039L22.7331 22.1076L25.4549 19.3103L21.6752 18.7331L20 15.1561Z" fill="white"/>
</g>
<defs>
<clipPath id="clip0_66_169">
<rect width="40" height="40" fill="white"/>
</clipPath>
</defs>
</svg>
