<svg width="40" height="40" viewBox="0 0 40 40" fill="none" xmlns="http://www.w3.org/2000/svg">
<path fill-rule="evenodd" clip-rule="evenodd" d="M1.25 10.5C1.25 5.39137 5.39137 1.25 10.5 1.25H29.5C34.6086 1.25 38.75 5.39137 38.75 10.5V29.5C38.75 34.6086 34.6086 38.75 29.5 38.75H10.5C5.39137 38.75 1.25 34.6086 1.25 29.5V10.5Z" fill="#8F0F0C"/>
<path fill-rule="evenodd" clip-rule="evenodd" d="M20.0001 9.6001L23.2815 16.2744L30.6292 17.3431L25.3259 22.5351L26.5747 29.8497L20.0001 26.3953L13.4256 29.8497L14.6744 22.5351L9.37109 17.3431L16.7188 16.2744L20.0001 9.6001ZM20.0001 15.2665L18.3815 18.5588L14.7292 19.0901L17.3592 21.6648L16.7414 25.2835L20.0001 23.5712L23.2589 25.2835L22.6411 21.6648L25.2711 19.0901L21.6188 18.5588L20.0001 15.2665Z" fill="white"/>
</svg>
